<?xml version="1.0" encoding="UTF-8"?>
<svg id="Layer_1" data-name="Layer 1" xmlns="http://www.w3.org/2000/svg" viewBox="0 0 283.46 90.26">
  <defs>
    <style>
      .cls-1 {
        fill: #bbbdbf;
      }

      .cls-1, .cls-2, .cls-3, .cls-4, .cls-5 {
        stroke-width: 0px;
      }

      .cls-2 {
        fill: #adcbea;
      }

      .cls-3 {
        fill: #5687af;
      }

      .cls-6 {
        isolation: isolate;
      }

      .cls-4 {
        fill: #2a95d2;
      }

      .cls-5 {
        fill: #fcfcfc;
      }
    </style>
  </defs>
  <g class="cls-6">
    <g>
      <path class="cls-5" d="m135.28,42.42c-2.86,0-5.33-.46-7.4-1.38-2.07-.92-3.68-2.27-4.82-4.04-1.14-1.78-1.78-3.98-1.9-6.62-.03-1.21-.05-2.52-.05-3.91s.01-2.73.05-4c.12-2.58.76-4.77,1.92-6.58,1.16-1.81,2.77-3.17,4.85-4.09,2.07-.92,4.52-1.38,7.36-1.38,2.01,0,3.87.24,5.58.73,1.71.49,3.2,1.2,4.48,2.13,1.28.93,2.28,2.06,2.99,3.38.72,1.32,1.09,2.81,1.12,4.47.03.27-.05.49-.25.67-.2.18-.43.27-.71.27h-6.17c-.4,0-.7-.08-.91-.24s-.4-.47-.55-.91c-.43-1.57-1.12-2.64-2.08-3.22s-2.14-.87-3.54-.87c-1.68,0-3,.45-3.98,1.36-.98.9-1.51,2.41-1.6,4.51-.09,2.43-.09,4.92,0,7.47.09,2.1.62,3.61,1.6,4.51.97.9,2.3,1.36,3.98,1.36,1.4,0,2.59-.3,3.57-.89.98-.59,1.66-1.66,2.06-3.2.12-.44.3-.75.53-.91.23-.16.54-.24.94-.24h6.17c.27,0,.51.09.71.27.2.18.28.4.25.67-.03,1.66-.4,3.15-1.12,4.47-.72,1.32-1.71,2.44-2.99,3.38-1.28.93-2.77,1.64-4.48,2.13-1.71.49-3.57.73-5.58.73Z"/>
      <path class="cls-5" d="m167.33,42.42c-2.8,0-5.24-.44-7.31-1.33-2.07-.89-3.69-2.23-4.85-4.02-1.16-1.79-1.8-4.04-1.92-6.73-.03-1.27-.05-2.56-.05-3.84s.01-2.57.05-3.84c.12-2.67.77-4.91,1.94-6.73,1.17-1.82,2.8-3.19,4.89-4.11,2.09-.92,4.5-1.38,7.25-1.38s5.19.46,7.27,1.38,3.7,2.29,4.89,4.11c1.19,1.82,1.83,4.07,1.92,6.73.06,1.27.09,2.55.09,3.84s-.03,2.57-.09,3.84c-.09,2.7-.73,4.94-1.9,6.73-1.17,1.79-2.8,3.13-4.87,4.02-2.07.89-4.51,1.33-7.31,1.33Zm0-6.4c1.61,0,2.93-.47,3.95-1.42,1.02-.95,1.56-2.46,1.62-4.53.06-1.3.09-2.53.09-3.69s-.03-2.36-.09-3.6c-.06-1.39-.33-2.52-.8-3.4-.47-.87-1.12-1.52-1.94-1.93-.82-.41-1.77-.62-2.83-.62s-1.97.21-2.79.62c-.82.42-1.48,1.06-1.97,1.93-.49.87-.76,2.01-.82,3.4-.03,1.24-.05,2.44-.05,3.6s.02,2.38.05,3.69c.09,2.07.65,3.59,1.67,4.53,1.02.95,2.32,1.42,3.91,1.42Z"/>
      <path class="cls-5" d="m188.06,42.42c-.3,0-.57-.11-.8-.34s-.34-.5-.34-.8V11.57c0-.33.11-.61.34-.82.23-.21.5-.32.8-.32h4.94c.52,0,.9.13,1.14.39.24.26.4.47.46.62l5.58,14.4,5.58-14.4c.09-.15.25-.36.48-.62s.6-.39,1.12-.39h4.89c.33,0,.62.11.85.32.23.21.34.49.34.82v29.71c0,.3-.11.57-.34.8-.23.23-.51.34-.85.34h-5.44c-.33,0-.62-.11-.85-.34s-.34-.5-.34-.8v-17.14l-2.65,9.55c-.15.27-.35.52-.59.73s-.58.32-1.01.32h-2.38c-.43,0-.76-.11-1.01-.32s-.44-.46-.59-.73l-2.7-9.55v17.14c0,.3-.11.57-.32.8s-.49.34-.82.34h-5.48Z"/>
      <path class="cls-5" d="m221.19,42.42c-.33,0-.61-.11-.82-.34s-.32-.5-.32-.8V11.57c0-.33.11-.61.32-.82.21-.21.49-.32.82-.32h6.13c.33,0,.62.11.85.32.23.21.34.49.34.82v29.71c0,.3-.11.57-.34.8s-.51.34-.85.34h-6.13Z"/>
      <g class="cls-6">
        <path class="cls-4" d="m235.5,42.42c-.27,0-.51-.1-.71-.3s-.3-.42-.3-.66c0-.09.02-.18.05-.27.03-.09.08-.18.14-.27l9.96-14.81-9.23-14.17c-.09-.18-.14-.37-.14-.55,0-.24.09-.47.27-.66.18-.2.41-.3.69-.3h6.63c.46,0,.81.11,1.05.34.24.23.43.43.55.62l5.44,8.27,5.53-8.27c.12-.18.3-.39.55-.62.24-.23.59-.34,1.05-.34h6.31c.24,0,.47.1.66.3.2.2.3.42.3.66,0,.21-.06.4-.18.55l-9.28,14.12,10.06,14.85c.06.09.1.18.11.27.02.09.02.18.02.27,0,.24-.09.47-.27.66-.18.2-.41.3-.69.3h-6.81c-.46,0-.82-.11-1.07-.34-.26-.23-.43-.42-.53-.57l-6.03-8.78-5.99,8.78c-.09.15-.26.34-.5.57s-.59.34-1.05.34h-6.58Z"/>
      </g>
    </g>
    <g>
      <g class="cls-6">
        <path class="cls-4" d="m132.86,79.73c-.34,0-.61-.11-.82-.34-.21-.23-.32-.5-.32-.8v-23.68h-8.87c-.34,0-.61-.11-.82-.34-.21-.23-.32-.49-.32-.8v-4.89c0-.33.11-.61.32-.82.21-.21.49-.32.82-.32h26.05c.33,0,.61.11.82.32.21.21.32.49.32.82v4.89c0,.31-.11.57-.32.8-.21.23-.49.34-.82.34h-8.86v23.68c0,.3-.11.57-.32.8-.21.23-.49.34-.82.34h-6.03Z"/>
      </g>
      <path class="cls-5" d="m167.33,79.73c-2.8,0-5.24-.44-7.31-1.33-2.07-.89-3.69-2.23-4.85-4.02-1.16-1.79-1.8-4.04-1.92-6.73-.03-1.27-.05-2.56-.05-3.84s.02-2.57.05-3.84c.12-2.67.77-4.91,1.94-6.73s2.8-3.19,4.89-4.11c2.09-.92,4.5-1.38,7.25-1.38s5.2.46,7.27,1.38c2.07.92,3.7,2.29,4.89,4.11s1.83,4.07,1.92,6.73c.06,1.27.09,2.55.09,3.84s-.03,2.57-.09,3.84c-.09,2.7-.72,4.94-1.9,6.73-1.17,1.79-2.8,3.13-4.87,4.02-2.07.89-4.51,1.33-7.31,1.33Zm0-6.4c1.62,0,2.93-.47,3.95-1.42,1.02-.95,1.56-2.46,1.62-4.53.06-1.3.09-2.53.09-3.69s-.03-2.36-.09-3.6c-.06-1.39-.33-2.53-.8-3.4-.47-.87-1.12-1.52-1.94-1.93-.82-.41-1.77-.62-2.83-.62s-1.97.21-2.79.62c-.82.42-1.48,1.06-1.97,1.93-.49.87-.76,2.01-.82,3.4-.03,1.24-.05,2.44-.05,3.6s.02,2.38.05,3.69c.09,2.07.65,3.59,1.67,4.53,1.02.95,2.32,1.42,3.91,1.42Z"/>
      <path class="cls-5" d="m221.34,79.73c-.33,0-.61-.11-.82-.34s-.32-.5-.32-.8v-29.71c0-.33.11-.61.32-.82.21-.21.49-.32.82-.32h6.13c.33,0,.62.11.85.32.23.21.34.49.34.82v29.71c0,.3-.11.57-.34.8s-.51.34-.85.34h-6.13Z"/>
      <g class="cls-6">
        <path class="cls-5" d="m236,79.73c-.23,0-.45-.1-.63-.3s-.28-.42-.28-.66c0-.15.01-.29.04-.41l10.28-29.34c.09-.33.27-.63.55-.89s.66-.39,1.16-.39h6.47c.5,0,.88.13,1.16.39.28.26.46.56.55.89l10.24,29.34c.06.12.09.26.09.41,0,.24-.1.47-.28.66-.19.2-.42.3-.68.3h-5.38c-.44,0-.77-.11-.98-.34-.22-.23-.36-.43-.42-.62l-1.71-4.66h-11.68l-1.66,4.66c-.06.18-.19.39-.39.62-.2.23-.55.34-1.05.34h-5.38Zm10.28-12.2h8.14l-4.07-12.07-4.07,12.07Z"/>
      </g>
      <path class="cls-5" d="m188.06,79.73c-.34,0-.61-.11-.82-.34-.21-.23-.32-.5-.32-.8v-29.71c0-.33.11-.61.32-.82s.49-.32.82-.32h12.8c2.53,0,4.73.39,6.6,1.17,1.87.78,3.34,1.94,4.39,3.5,1.05,1.55,1.58,3.52,1.58,5.9s-.53,4.28-1.58,5.8c-1.05,1.52-2.51,2.65-4.39,3.38s-4.08,1.1-6.6,1.1h-5.44v10.01c0,.3-.11.57-.34.8-.23.23-.51.34-.85.34h-6.17Zm7.22-17.46h5.35c1.31,0,2.35-.33,3.13-1.01.78-.67,1.17-1.69,1.17-3.06,0-1.16-.34-2.13-1.01-2.93-.67-.79-1.77-1.19-3.29-1.19h-5.35v8.18Z"/>
    </g>
  </g>
  <g>
    <path class="cls-1" d="m110.47,77.43c-3.75-.73-11.59-1.95-21.7-1.95s-17.98,1.21-21.7,1.94V14.85c3.15-.77,11.35-2.48,21.7-2.48,12.79,0,19.3,1.57,21.7,2.33v62.73h0Z"/>
    <path class="cls-5" d="m65.13,79.83s-9.67-2.41-23.64-2.41c-9.08,0-16.34,1.02-20.31,1.73-1.74.31-3.33-1.02-3.33-2.78V15.54c0-1.31.9-2.45,2.17-2.75,3.64-.85,11.55-2.37,21.47-2.37,17.65,0,23.64,2.92,23.64,2.92v66.49Z"/>
    <path class="cls-5" d="m65.13,79.83s-9.67-2.41-23.64-2.41c-9.08,0-16.34,1.02-20.31,1.73-1.74.31-3.33-1.02-3.33-2.78V15.54c0-1.31.9-2.45,2.17-2.75,3.64-.85,11.55-2.37,21.47-2.37,17.65,0,23.64,2.92,23.64,2.92v66.49Z"/>
    <path class="cls-5" d="m63.18,77.43c-3.75-.73-11.59-1.95-21.7-1.95s-17.98,1.21-21.7,1.94V14.85c3.15-.77,11.35-2.48,21.7-2.48,12.79,0,19.3,1.57,21.7,2.33v62.73h0Z"/>
    <path class="cls-5" d="m61.23,75.11c-4.31-.71-11.24-1.57-19.75-1.57s-15.5.85-19.75,1.56V16.4c3.73-.81,10.95-2.08,19.75-2.08,10.63,0,16.79,1.1,19.75,1.85v58.93h0Z"/>
    <path class="cls-5" d="m112.41,76.37c0,1.76-1.59,3.09-3.33,2.78-3.97-.71-11.24-1.73-20.31-1.73-13.97,0-23.64,2.41-23.64,2.41V13.35s9.9-2.92,23.64-2.92c12.01,0,18.62,1.35,21.62,2.22,1.2.35,2.02,1.46,2.02,2.71v61.02Z"/>
    <path class="cls-5" d="m112.41,76.37c0,1.76-1.59,3.09-3.33,2.78-3.97-.71-11.24-1.73-20.31-1.73-13.97,0-23.64,2.41-23.64,2.41V13.35s9.9-2.92,23.64-2.92c12.01,0,18.62,1.35,21.62,2.22,1.2.35,2.02,1.46,2.02,2.71v61.02Z"/>
    <polygon class="cls-4" points="20.88 15.83 20.88 40.35 36 36.62 42.93 13.6 20.88 15.83"/>
    <path class="cls-5" d="m108.52,75.11c-4.31-.71-11.24-1.57-19.75-1.57s-15.5.85-19.75,1.56V16.4c3.73-.81,10.95-2.08,19.75-2.08,10.63,0,16.79,1.1,19.75,1.85v58.93h0Z"/>
    <polygon class="cls-4" points="68.16 15.7 68.16 34.39 83.99 32.42 83.61 13.67 68.16 15.7"/>
    <polygon class="cls-4" points="42.93 13.6 36 36.62 48.92 34.91 62.41 33.86 62.41 15.18 42.93 13.6"/>
    <polygon class="cls-2" points="20.88 40.35 21.23 58.65 33.05 57.85 45.2 58.99 44.68 35.57 32.14 37.72 20.88 40.35"/>
    <polygon class="cls-2" points="62.08 34.01 62.08 61.8 44.87 58.6 44.68 35.57 62.08 34.01"/>
    <polygon class="cls-3" points="20.65 58.56 20.88 76.37 39.43 74.67 34.05 58.17 20.65 58.56"/>
    <polygon class="cls-3" points="34.05 58.17 62.08 61.8 62.08 76.14 39.05 74.75 33.33 58.17 34.05 58.17"/>
    <path class="cls-5" d="m41.48,12.38c-10.35,0-18.55,1.71-21.7,2.48v62.57c3.71-.73,11.44-1.94,21.7-1.94s17.95,1.23,21.7,1.95V14.71c-2.4-.76-8.91-2.33-21.7-2.33Zm-19.75,4.02c3.73-.81,10.95-2.08,19.75-2.08l-6.53,21.75c-3.88.78-8.2,1.79-13.23,3.13v-22.8h0Zm0,25.09c9.63-2.58,14.89-3.9,22.09-4.87v21.23c-6.71-.74-12.14-.64-22.09-.3v-16.06Zm0,17.91c4.07-.31,7.72-.45,11.35-.4l4.3,14.61c-6.69.21-12.09.89-15.64,1.48v-15.69h-.01Zm39.5,15.71c-4.31-.71-11.24-1.57-19.75-1.57-.56,0-1.08.01-1.62.02l-4.35-14.49c7.22.28,14.73,1.37,25.73,3.54v12.5h-.01Zm0-14.34c-6.51-1.29-11.23-2.13-15.32-2.67v-21.75c4.07-.49,8.84-.91,15.32-1.39v25.81Zm0-27.66c-7.62.41-14.31.74-23.65,2.46l6.24-21.21c9.18.15,14.68,1.13,17.42,1.82v16.93h0Z"/>
    <path class="cls-2" d="m68.16,34.39v18.24s10.04-2.92,22.24-2.29c12.2.64,19.19,1.65,19.19,1.65v-15.38s-11.69-4.32-23.13-3.62-18.3,1.4-18.3,1.4Z"/>
    <polygon class="cls-3" points="90.34 49.76 83.48 74.26 109.22 75.83 109.22 51.48 90.34 49.76"/>
    <polygon class="cls-3" points="67.8 52.26 67.99 75.83 83.48 74.26 90.25 50.12 67.8 52.26"/>
    <path class="cls-4" d="m83.61,13.67l.38,18.75s17.1.9,25.61,4.2l-.38-22.08-25.61-.86h0Z"/>
    <path class="cls-5" d="m88.77,12.38c-10.35,0-18.55,1.71-21.7,2.48v62.57c3.71-.73,11.44-1.94,21.7-1.94s17.95,1.23,21.7,1.95V14.71c-2.4-.76-8.91-2.33-21.7-2.33Zm19.75,3.8v18.74c-9.7-2.56-16.98-3.34-23.28-3.29l-.33-17.21c1.25-.05,2.53-.09,3.85-.09,10.63,0,16.79,1.1,19.75,1.85h.01Zm-25.94-1.65l.22,17.15c-4.84.2-9.19.83-13.76,1.42v1.85c16.79-1.84,24.09-1.85,39.49,2.24v14.02c-3.01-.75-9.17-1.83-19.74-1.83-8.79,0-15.99,1.25-19.76,2.06V16.4c2.81-.61,7.6-1.48,13.56-1.87h0Zm-13.56,38.54c4.28-.71,11.16-1.83,19.76-1.83h.25l-6.16,22.43c-5.87.27-10.62.88-13.85,1.42v-22.03h0Zm19.75,20.47c-1.3,0-2.55.02-3.77.06l5.98-22.32c7.48.17,13.59,1.15,17.54,1.8v22.03c-4.31-.71-11.24-1.57-19.75-1.57Z"/>
  </g>
</svg>